<svg width="64" height="41" viewBox="0 0 64 41" fill="none" xmlns="http://www.w3.org/2000/svg">
<rect x="0.5" y="0.5" width="63" height="40" rx="5" fill="#0088CC"/>
<path d="M48.7997 11.294C48.5223 11.1498 48.1845 11.054 47.8231 11.0171C47.4617 10.9801 47.0903 11.0034 46.7493 11.0845L15.7774 18.4063C15.3725 18.502 15.03 18.674 14.8012 18.8966C14.5723 19.1192 14.4694 19.3804 14.5079 19.6412C14.5463 19.9019 14.724 20.1481 15.0144 20.343C15.3048 20.5379 15.6923 20.671 16.1189 20.7223L24.5255 21.7341V27.9782C24.5213 28.2185 24.6378 28.4539 24.8596 28.6536C25.0814 28.8534 25.3983 29.0082 25.7687 29.0977C26.0169 29.1603 26.2831 29.1927 26.5521 29.1931C26.815 29.1926 27.0752 29.1607 27.3174 29.0992C27.5597 29.0378 27.7792 28.948 27.9633 28.835L32.7623 25.9473L39.8431 29.6969C40.2079 29.8918 40.6789 29.9997 41.1669 30C41.379 29.9999 41.5898 29.9797 41.7916 29.9403C42.1244 29.8768 42.4237 29.7619 42.6597 29.6071C42.8956 29.4522 43.06 29.2628 43.1363 29.0578L49.4486 12.483C49.531 12.2681 49.5141 12.0437 49.3997 11.8341C49.2853 11.6245 49.0778 11.4377 48.7997 11.294ZM15.8452 19.5698C15.8285 19.4825 15.8612 19.3944 15.938 19.3197C16.0148 19.245 16.1312 19.1881 16.2684 19.1581L44.659 12.4465L25.0411 20.9723L16.3821 19.9302C16.2383 19.9152 16.1071 19.8715 16.0096 19.8061C15.9122 19.7407 15.8542 19.6574 15.8452 19.5698ZM27.014 28.2638C26.9201 28.3203 26.8005 28.3588 26.6703 28.3744C26.5401 28.39 26.4051 28.382 26.2825 28.3514C26.1598 28.3208 26.055 28.2691 25.9812 28.2027C25.9075 28.1362 25.8681 28.0581 25.8681 27.9782V22.2965L31.7524 25.4125L27.014 28.2638ZM48.14 12.3026L41.8277 28.8773C41.8017 28.9455 41.7467 29.0085 41.6682 29.0601C41.5896 29.1117 41.4901 29.1501 41.3794 29.1715C41.2687 29.193 41.1507 29.1968 41.0368 29.1826C40.923 29.1684 40.8172 29.1366 40.7299 29.0904L26.2717 21.4341L48.0315 11.9775C48.0887 12.0234 48.1282 12.0764 48.1469 12.1326C48.1657 12.1889 48.1633 12.247 48.14 12.3026Z" fill="white"/>
</svg>
