<svg width="64" height="41" viewBox="0 0 64 41" fill="none" xmlns="http://www.w3.org/2000/svg">
<rect x="0.5" y="0.5" width="63" height="40" rx="5" fill="#4C75A3"/>
<path d="M33.9576 32.1845C34.504 32.0752 35.4874 31.8566 35.4874 30.5453C35.4874 30.5453 35.3782 27.267 36.908 26.8299C38.4379 26.3928 40.4049 29.9989 42.4811 31.4195C44.011 32.403 45.213 32.2937 45.213 32.2937L50.7861 32.1845C50.7861 32.1845 53.6273 31.9659 52.3159 29.6711C52.2067 29.4526 51.3325 28.032 48.0542 25.0815C44.6666 21.8033 45.213 22.3496 49.2562 16.7766C51.7696 13.389 52.8623 11.3128 52.5345 10.5478C52.0974 9.7829 50.349 9.89217 50.349 9.89217H44.1202C43.4646 9.89217 43.1368 10.0014 42.8089 10.5478C42.8089 10.5478 41.8255 13.2797 40.5141 15.4652C37.7822 20.1641 36.6895 20.3827 36.1431 20.0548C35.1596 19.5085 35.3782 17.4322 35.3782 16.0116C35.3782 11.0942 36.1431 9.34579 33.9576 8.90869C32.537 8.69014 27.5103 8.47159 25.9804 9.23652C25.2155 9.67362 24.7784 10.4386 25.1062 10.5478C25.4341 10.5478 26.4175 10.6571 26.9639 11.3128C27.8381 12.7333 27.9474 19.5085 26.7454 20.1641C25.1062 21.3661 20.9537 13.389 19.9703 10.7664C19.7517 10.1107 19.4239 10.0014 18.659 9.7829H12.6488C11.9931 9.7829 11.0096 9.89217 11.4467 11.2035C14.3972 17.3229 20.5166 32.2937 31.5535 32.1845H33.9576Z" fill="white"/>
</svg>
